<svg xmlns="http://www.w3.org/2000/svg" width="256" height="256" viewBox="0 0 100 100"><rect width="100" height="100" rx="50" fill="#ffffff"></rect><path d="M30.90 50.10L30.90 50.10Q30.90 54.06 30.19 57.30Q29.49 60.53 28.05 62.83Q26.61 65.14 24.40 66.42Q22.19 67.70 19.18 67.70L19.18 67.70Q16.18 67.70 13.94 66.42Q11.70 65.14 10.26 62.83Q8.82 60.53 8.11 57.30Q7.41 54.06 7.41 50.10L7.41 50.10Q7.41 46.19 8.11 42.93Q8.82 39.66 10.26 37.33Q11.70 34.99 13.94 33.71Q16.18 32.43 19.18 32.43L19.18 32.43Q22.19 32.43 24.40 33.71Q26.61 34.99 28.05 37.33Q29.49 39.66 30.19 42.93Q30.90 46.19 30.90 50.10ZM25.14 50.10L25.14 50.10Q25.14 47.28 24.82 44.94Q24.50 42.61 23.79 40.91Q23.09 39.22 21.94 38.29Q20.78 37.36 19.18 37.36L19.18 37.36Q17.52 37.36 16.40 38.29Q15.28 39.22 14.54 40.91Q13.81 42.61 13.49 44.94Q13.17 47.28 13.17 50.10L13.17 50.10Q13.17 52.91 13.49 55.25Q13.81 57.58 14.54 59.25Q15.28 60.91 16.40 61.84Q17.52 62.77 19.18 62.77L19.18 62.77Q20.78 62.77 21.94 61.84Q23.09 60.91 23.79 59.25Q24.50 57.58 24.82 55.25Q25.14 52.91 25.14 50.10ZM33.71 78.51L33.71 73.84L57.71 73.84L57.71 78.51L33.71 78.51ZM92.59 44.72L92.59 44.72Q92.59 49.90 91.66 54.16Q90.74 58.42 88.78 61.46Q86.83 64.50 83.86 66.16Q80.88 67.82 76.85 67.82L76.85 67.82Q72.82 67.82 69.84 66.16Q66.86 64.50 64.91 61.46Q62.96 58.42 62 54.16Q61.04 49.90 61.04 44.72L61.04 44.72Q61.04 39.54 62 35.25Q62.96 30.96 64.91 27.92Q66.86 24.88 69.84 23.18Q72.82 21.49 76.85 21.49L76.85 21.49Q80.88 21.49 83.86 23.18Q86.83 24.88 88.78 27.92Q90.74 30.96 91.66 35.25Q92.59 39.54 92.59 44.72ZM86.45 44.72L86.45 44.72Q86.45 40.69 85.94 37.36Q85.42 34.03 84.27 31.63Q83.12 29.23 81.30 27.89Q79.47 26.54 76.85 26.54L76.85 26.54Q74.22 26.54 72.40 27.89Q70.58 29.23 69.42 31.63Q68.27 34.03 67.73 37.36Q67.18 40.69 67.18 44.72L67.18 44.72Q67.18 48.75 67.73 52.08Q68.27 55.41 69.42 57.78Q70.58 60.14 72.40 61.46Q74.22 62.77 76.85 62.77L76.85 62.77Q79.47 62.77 81.30 61.46Q83.12 60.14 84.27 57.78Q85.42 55.41 85.94 52.08Q86.45 48.75 86.45 44.72Z" fill="#1b1b1b"></path></svg>